<mxfile host="Electron" modified="2024-02-18T14:44:29.014Z" agent="Mozilla/5.0 (Windows NT 10.0; Win64; x64) AppleWebKit/537.36 (KHTML, like Gecko) draw.io/21.3.7 Chrome/112.0.5615.204 Electron/24.5.0 Safari/537.36" etag="fhC2-CKFcw0YEPoQoFoK" version="21.3.7" type="device">
  <diagram id="C5RBs43oDa-KdzZeNtuy" name="Page-1">
    <mxGraphModel dx="1325" dy="1593" grid="1" gridSize="10" guides="1" tooltips="1" connect="1" arrows="1" fold="1" page="1" pageScale="1" pageWidth="827" pageHeight="1169" math="0" shadow="0">
      <root>
        <mxCell id="WIyWlLk6GJQsqaUBKTNV-0" />
        <mxCell id="WIyWlLk6GJQsqaUBKTNV-1" parent="WIyWlLk6GJQsqaUBKTNV-0" />
        <mxCell id="mavMAIqw1ETcCiWNyiSy-4" style="edgeStyle=orthogonalEdgeStyle;rounded=0;orthogonalLoop=1;jettySize=auto;html=1;" edge="1" parent="WIyWlLk6GJQsqaUBKTNV-1" source="mavMAIqw1ETcCiWNyiSy-0" target="mavMAIqw1ETcCiWNyiSy-1">
          <mxGeometry relative="1" as="geometry" />
        </mxCell>
        <mxCell id="mavMAIqw1ETcCiWNyiSy-0" value="Landing Page" style="rounded=1;whiteSpace=wrap;html=1;fontSize=12;glass=0;strokeWidth=1;shadow=0;fillColor=#ffe6cc;strokeColor=#d79b00;" vertex="1" parent="WIyWlLk6GJQsqaUBKTNV-1">
          <mxGeometry x="370" y="290" width="120" height="40" as="geometry" />
        </mxCell>
        <mxCell id="mavMAIqw1ETcCiWNyiSy-3" style="edgeStyle=orthogonalEdgeStyle;rounded=1;orthogonalLoop=1;jettySize=auto;html=1;entryX=0.5;entryY=0;entryDx=0;entryDy=0;" edge="1" parent="WIyWlLk6GJQsqaUBKTNV-1" source="mavMAIqw1ETcCiWNyiSy-1" target="mavMAIqw1ETcCiWNyiSy-2">
          <mxGeometry relative="1" as="geometry" />
        </mxCell>
        <mxCell id="mavMAIqw1ETcCiWNyiSy-6" style="edgeStyle=orthogonalEdgeStyle;rounded=0;orthogonalLoop=1;jettySize=auto;html=1;" edge="1" parent="WIyWlLk6GJQsqaUBKTNV-1" source="mavMAIqw1ETcCiWNyiSy-1" target="mavMAIqw1ETcCiWNyiSy-5">
          <mxGeometry relative="1" as="geometry" />
        </mxCell>
        <mxCell id="mavMAIqw1ETcCiWNyiSy-1" value="Login" style="rounded=1;whiteSpace=wrap;html=1;fontSize=12;glass=0;strokeWidth=1;shadow=0;fillColor=#ffe6cc;strokeColor=#d79b00;" vertex="1" parent="WIyWlLk6GJQsqaUBKTNV-1">
          <mxGeometry x="370" y="360" width="120" height="40" as="geometry" />
        </mxCell>
        <mxCell id="mavMAIqw1ETcCiWNyiSy-7" style="edgeStyle=orthogonalEdgeStyle;rounded=1;orthogonalLoop=1;jettySize=auto;html=1;entryX=1;entryY=0.5;entryDx=0;entryDy=0;exitX=0.5;exitY=1;exitDx=0;exitDy=0;" edge="1" parent="WIyWlLk6GJQsqaUBKTNV-1" source="mavMAIqw1ETcCiWNyiSy-2" target="mavMAIqw1ETcCiWNyiSy-5">
          <mxGeometry relative="1" as="geometry" />
        </mxCell>
        <mxCell id="mavMAIqw1ETcCiWNyiSy-2" value="Sign up" style="rounded=1;whiteSpace=wrap;html=1;fontSize=12;glass=0;strokeWidth=1;shadow=0;fillColor=#ffe6cc;strokeColor=#d79b00;" vertex="1" parent="WIyWlLk6GJQsqaUBKTNV-1">
          <mxGeometry x="520" y="400" width="120" height="40" as="geometry" />
        </mxCell>
        <mxCell id="mavMAIqw1ETcCiWNyiSy-14" style="edgeStyle=orthogonalEdgeStyle;rounded=0;orthogonalLoop=1;jettySize=auto;html=1;entryX=0.5;entryY=0;entryDx=0;entryDy=0;" edge="1" parent="WIyWlLk6GJQsqaUBKTNV-1" source="mavMAIqw1ETcCiWNyiSy-5" target="mavMAIqw1ETcCiWNyiSy-8">
          <mxGeometry relative="1" as="geometry" />
        </mxCell>
        <mxCell id="mavMAIqw1ETcCiWNyiSy-19" style="edgeStyle=orthogonalEdgeStyle;rounded=1;orthogonalLoop=1;jettySize=auto;html=1;" edge="1" parent="WIyWlLk6GJQsqaUBKTNV-1" target="mavMAIqw1ETcCiWNyiSy-17">
          <mxGeometry relative="1" as="geometry">
            <mxPoint x="430" y="500" as="sourcePoint" />
            <Array as="points">
              <mxPoint x="430" y="500" />
              <mxPoint x="310" y="500" />
            </Array>
          </mxGeometry>
        </mxCell>
        <mxCell id="mavMAIqw1ETcCiWNyiSy-5" value="Home Page" style="rounded=1;whiteSpace=wrap;html=1;fontSize=12;glass=0;strokeWidth=1;shadow=0;fillColor=#ffe6cc;strokeColor=#d79b00;" vertex="1" parent="WIyWlLk6GJQsqaUBKTNV-1">
          <mxGeometry x="370" y="440" width="120" height="40" as="geometry" />
        </mxCell>
        <mxCell id="mavMAIqw1ETcCiWNyiSy-8" value="All products&amp;nbsp;" style="rounded=1;whiteSpace=wrap;html=1;fontSize=12;glass=0;strokeWidth=1;shadow=0;fillColor=#ffe6cc;strokeColor=#d79b00;" vertex="1" parent="WIyWlLk6GJQsqaUBKTNV-1">
          <mxGeometry x="380" y="520" width="100" height="40" as="geometry" />
        </mxCell>
        <mxCell id="mavMAIqw1ETcCiWNyiSy-9" value="Keyboards" style="rounded=1;whiteSpace=wrap;html=1;fontSize=12;glass=0;strokeWidth=1;shadow=0;fillColor=#ffe6cc;strokeColor=#d79b00;" vertex="1" parent="WIyWlLk6GJQsqaUBKTNV-1">
          <mxGeometry x="610" y="520" width="90" height="40" as="geometry" />
        </mxCell>
        <mxCell id="mavMAIqw1ETcCiWNyiSy-10" value="Mice" style="rounded=1;whiteSpace=wrap;html=1;fontSize=12;glass=0;strokeWidth=1;shadow=0;fillColor=#ffe6cc;strokeColor=#d79b00;" vertex="1" parent="WIyWlLk6GJQsqaUBKTNV-1">
          <mxGeometry x="500" y="520" width="90" height="40" as="geometry" />
        </mxCell>
        <mxCell id="mavMAIqw1ETcCiWNyiSy-29" style="edgeStyle=orthogonalEdgeStyle;rounded=1;orthogonalLoop=1;jettySize=auto;html=1;entryX=0.5;entryY=0;entryDx=0;entryDy=0;" edge="1" parent="WIyWlLk6GJQsqaUBKTNV-1" source="mavMAIqw1ETcCiWNyiSy-11" target="mavMAIqw1ETcCiWNyiSy-13">
          <mxGeometry relative="1" as="geometry">
            <Array as="points">
              <mxPoint x="765" y="570" />
              <mxPoint x="825" y="570" />
            </Array>
          </mxGeometry>
        </mxCell>
        <mxCell id="mavMAIqw1ETcCiWNyiSy-31" style="edgeStyle=orthogonalEdgeStyle;rounded=1;orthogonalLoop=1;jettySize=auto;html=1;entryX=0.5;entryY=0;entryDx=0;entryDy=0;" edge="1" parent="WIyWlLk6GJQsqaUBKTNV-1" source="mavMAIqw1ETcCiWNyiSy-11" target="mavMAIqw1ETcCiWNyiSy-12">
          <mxGeometry relative="1" as="geometry">
            <Array as="points">
              <mxPoint x="765" y="570" />
              <mxPoint x="705" y="570" />
            </Array>
          </mxGeometry>
        </mxCell>
        <mxCell id="mavMAIqw1ETcCiWNyiSy-11" value="Acessories" style="rounded=1;whiteSpace=wrap;html=1;fontSize=12;glass=0;strokeWidth=1;shadow=0;fillColor=#ffe6cc;strokeColor=#d79b00;" vertex="1" parent="WIyWlLk6GJQsqaUBKTNV-1">
          <mxGeometry x="720" y="520" width="90" height="40" as="geometry" />
        </mxCell>
        <mxCell id="mavMAIqw1ETcCiWNyiSy-12" value="Desk Pads" style="rounded=1;whiteSpace=wrap;html=1;fontSize=12;glass=0;strokeWidth=1;shadow=0;fillColor=#ffe6cc;strokeColor=#d79b00;" vertex="1" parent="WIyWlLk6GJQsqaUBKTNV-1">
          <mxGeometry x="660" y="590" width="90" height="40" as="geometry" />
        </mxCell>
        <mxCell id="mavMAIqw1ETcCiWNyiSy-13" value="Phone cases" style="rounded=1;whiteSpace=wrap;html=1;fontSize=12;glass=0;strokeWidth=1;shadow=0;fillColor=#ffe6cc;strokeColor=#d79b00;" vertex="1" parent="WIyWlLk6GJQsqaUBKTNV-1">
          <mxGeometry x="780" y="590" width="90" height="40" as="geometry" />
        </mxCell>
        <mxCell id="mavMAIqw1ETcCiWNyiSy-15" value="Acount Info" style="rounded=1;whiteSpace=wrap;html=1;fontSize=12;glass=0;strokeWidth=1;shadow=0;fillColor=#ffe6cc;strokeColor=#d79b00;" vertex="1" parent="WIyWlLk6GJQsqaUBKTNV-1">
          <mxGeometry x="20" y="520" width="100" height="40" as="geometry" />
        </mxCell>
        <mxCell id="mavMAIqw1ETcCiWNyiSy-16" value="Notifications" style="rounded=1;whiteSpace=wrap;html=1;fontSize=12;glass=0;strokeWidth=1;shadow=0;fillColor=#ffe6cc;strokeColor=#d79b00;" vertex="1" parent="WIyWlLk6GJQsqaUBKTNV-1">
          <mxGeometry x="140" y="520" width="100" height="40" as="geometry" />
        </mxCell>
        <mxCell id="mavMAIqw1ETcCiWNyiSy-32" style="edgeStyle=orthogonalEdgeStyle;rounded=0;orthogonalLoop=1;jettySize=auto;html=1;" edge="1" parent="WIyWlLk6GJQsqaUBKTNV-1" source="mavMAIqw1ETcCiWNyiSy-17" target="mavMAIqw1ETcCiWNyiSy-18">
          <mxGeometry relative="1" as="geometry" />
        </mxCell>
        <mxCell id="mavMAIqw1ETcCiWNyiSy-17" value="Cart" style="rounded=1;whiteSpace=wrap;html=1;fontSize=12;glass=0;strokeWidth=1;shadow=0;fillColor=#ffe6cc;strokeColor=#d79b00;" vertex="1" parent="WIyWlLk6GJQsqaUBKTNV-1">
          <mxGeometry x="260" y="520" width="100" height="40" as="geometry" />
        </mxCell>
        <mxCell id="mavMAIqw1ETcCiWNyiSy-18" value="Checkout" style="rounded=1;whiteSpace=wrap;html=1;fontSize=12;glass=0;strokeWidth=1;shadow=0;fillColor=#ffe6cc;strokeColor=#d79b00;" vertex="1" parent="WIyWlLk6GJQsqaUBKTNV-1">
          <mxGeometry x="260" y="580" width="100" height="40" as="geometry" />
        </mxCell>
        <mxCell id="mavMAIqw1ETcCiWNyiSy-20" style="edgeStyle=orthogonalEdgeStyle;rounded=1;orthogonalLoop=1;jettySize=auto;html=1;entryX=0.5;entryY=0;entryDx=0;entryDy=0;" edge="1" parent="WIyWlLk6GJQsqaUBKTNV-1" target="mavMAIqw1ETcCiWNyiSy-16">
          <mxGeometry relative="1" as="geometry">
            <mxPoint x="430" y="500" as="sourcePoint" />
            <mxPoint x="320" y="530" as="targetPoint" />
            <Array as="points">
              <mxPoint x="190" y="500" />
            </Array>
          </mxGeometry>
        </mxCell>
        <mxCell id="mavMAIqw1ETcCiWNyiSy-22" style="edgeStyle=orthogonalEdgeStyle;rounded=1;orthogonalLoop=1;jettySize=auto;html=1;entryX=0.5;entryY=0;entryDx=0;entryDy=0;" edge="1" parent="WIyWlLk6GJQsqaUBKTNV-1">
          <mxGeometry relative="1" as="geometry">
            <mxPoint x="310" y="500" as="sourcePoint" />
            <mxPoint x="70" y="520" as="targetPoint" />
            <Array as="points">
              <mxPoint x="70" y="500" />
            </Array>
          </mxGeometry>
        </mxCell>
        <mxCell id="mavMAIqw1ETcCiWNyiSy-23" style="edgeStyle=orthogonalEdgeStyle;rounded=1;orthogonalLoop=1;jettySize=auto;html=1;entryX=0.507;entryY=0.045;entryDx=0;entryDy=0;entryPerimeter=0;" edge="1" parent="WIyWlLk6GJQsqaUBKTNV-1" target="mavMAIqw1ETcCiWNyiSy-10">
          <mxGeometry relative="1" as="geometry">
            <mxPoint x="430" y="500" as="sourcePoint" />
            <mxPoint x="320" y="530" as="targetPoint" />
            <Array as="points">
              <mxPoint x="546" y="500" />
            </Array>
          </mxGeometry>
        </mxCell>
        <mxCell id="mavMAIqw1ETcCiWNyiSy-24" style="edgeStyle=orthogonalEdgeStyle;rounded=1;orthogonalLoop=1;jettySize=auto;html=1;entryX=0.5;entryY=0;entryDx=0;entryDy=0;" edge="1" parent="WIyWlLk6GJQsqaUBKTNV-1" target="mavMAIqw1ETcCiWNyiSy-9">
          <mxGeometry relative="1" as="geometry">
            <mxPoint x="534" y="500" as="sourcePoint" />
            <mxPoint x="650" y="520" as="targetPoint" />
            <Array as="points">
              <mxPoint x="534" y="500" />
              <mxPoint x="655" y="500" />
            </Array>
          </mxGeometry>
        </mxCell>
        <mxCell id="mavMAIqw1ETcCiWNyiSy-25" style="edgeStyle=orthogonalEdgeStyle;rounded=1;orthogonalLoop=1;jettySize=auto;html=1;entryX=0.507;entryY=0.045;entryDx=0;entryDy=0;entryPerimeter=0;" edge="1" parent="WIyWlLk6GJQsqaUBKTNV-1">
          <mxGeometry relative="1" as="geometry">
            <mxPoint x="640" y="500" as="sourcePoint" />
            <mxPoint x="766" y="520" as="targetPoint" />
            <Array as="points">
              <mxPoint x="640" y="500" />
              <mxPoint x="766" y="500" />
            </Array>
          </mxGeometry>
        </mxCell>
      </root>
    </mxGraphModel>
  </diagram>
</mxfile>
